# xmcd
#
# Track frame offsets:
#	150
#	1432
#	44088
#	47836
#	49609
#	50094
#	159698
#	209764
#	258680
#	260966
#
# Disc length: 3492 seconds
# Revision: 0
# Processed by: cddbd v1.5.2PL0 Copyright (c) Steve Scherf et al.
# Submitted via: dBpowerAMP V12.0
#
DISCID=a10da20a
DTITLE=Hale Dwoskin - The Inner Circle Retreat 01 CD 14
DYEAR=2006
DGENRE=Speech
TTITLE0=Intro Music
TTITLE1=Release on Wanting to Live and Wanting to Die
TTITLE2=Sharing
TTITLE3=Introduction to the Release
TTITLE4=Assignment
TTITLE5=Clean-Up Release on the Year
TTITLE6=Participants Intentions for the New Year
TTITLE7=Bringing In the New Year in Silence
TTITLE8=Happy New Year
TTITLE9=Concluding Music
EXTD=
EXTT0=
EXTT1=
EXTT2=
EXTT3=
EXTT4=
EXTT5=
EXTT6=
EXTT7=
EXTT8=
EXTT9=
PLAYORDER=
